<mxfile host="app.diagrams.net" modified="2023-09-29T11:23:03.607Z" agent="Mozilla/5.0 (Windows NT 10.0; Win64; x64) AppleWebKit/537.36 (KHTML, like Gecko) Chrome/117.0.0.0 Safari/537.36" version="22.0.0" etag="iJeCcyJTM2QAXMQTPpaU" type="github">
  <diagram name="Страница — 1" id="094rIX_v4tiGBF97fC8Q">
    <mxGraphModel>
      <root>
        <mxCell id="0" />
        <mxCell id="1" parent="0" />
      </root>
    </mxGraphModel>
  </diagram>
</mxfile>
